<svg xmlns="http://www.w3.org/2000/svg" xmlns:xlink="http://www.w3.org/1999/xlink" viewBox="0 0 500 500"><defs><clipPath id="freepik--clip-path--inject-92"><path d="M266.22,245.89c-5.69,6.14-12.55,38.94-12.55,38.94s-4.22-5.17-5.27,0l-6.81-3.9s6.38,15.51,0,24.16l7.86,2.82s4.69,6.24,11.84,7.35,23.15-34.68,23.15-34.68Z" style="fill:#F47814;stroke:#263238;stroke-linecap:round;stroke-linejoin:round"></path></clipPath><clipPath id="freepik--clip-path-2--inject-92"><path d="M266.22,245.89s8.1-9.74,20.75-12.9,24.36,3.63,24.36,3.63,28.39,5,36.3,20.3c4.14,8,5.25,32.42,13.18,38.73,14.18,11.28,13.92,84.76,13.92,84.76l-2.15.41L370,339.21,351.9,382.14c-18.86,3-61,8.14-80.54-.91l32.4-66.67C282.59,295.12,261.82,265.43,266.22,245.89Z" style="fill:#F47814;stroke:#263238;stroke-linecap:round;stroke-linejoin:round"></path></clipPath><clipPath id="freepik--clip-path-3--inject-92"><path d="M289.06,233.42c-24.7,5.81-10.6,78.21-9.54,86.39s-2.9,18.46-1.85,20,3.69,25.17,1.32,28-1.5,12.54-1.5,12.54-5.36.69-6.41-1.34-4.22-1.71-4.22-1.71a13,13,0,0,0-2-3.15s4.74-2,3.6-6.08,2.07-23.27.4-28.28.45-26.11-.4-33.23-4.14-65.35,5.69-66.22c0,0,3.16-7.65,6.59-8.92S289.06,233.42,289.06,233.42Z" style="fill:#bfbfbf;stroke:#263238;stroke-linecap:round;stroke-linejoin:round"></path></clipPath><clipPath id="freepik--clip-path-4--inject-92"><path d="M305.23,239.37c-1.71,5.58-1.1,14.66-2.36,28.22-2.12,22.76,12.12,69.55,10.54,80.33-.81,5.51.61,11.61.81,17.14a53.62,53.62,0,0,1-.37,10.29c-.16,1-3.15,6.78-3.15,6.78s4.64.58,5.62-.09c.33-.23.42-.67.66-1,.6-.78,1.84-.54,2.7-.06s1.76,1.13,2.72.92c0,0,4.13-8.54,1.86-23-1.09-6.92,0-14.68-1.62-21.53-2.38-10.28-10.82-47.42-6.86-64.49s7.73-27.81,4.48-33.75-7.25-4-7.25-4c-12.13-9.09-22.81-3-22.81-3S306.68,234.62,305.23,239.37Z" style="fill:#bfbfbf;stroke:#263238;stroke-linecap:round;stroke-linejoin:round"></path></clipPath><clipPath id="freepik--clip-path-5--inject-92"><path d="M124.26,422.85a36.83,36.83,0,0,1-9.26.48c-2.84-.14-10.81-2.15-12.59-2.06s-5.26,1.67-9,.47c-2.37-.77-2.5-4.24-.56-11.53q.08-.27.15-.6c1-4.41,2.22-15.21,0-24.39l14.18,2.21a61.85,61.85,0,0,0,.42,13.81c.52,3.11,1.44,6.07,3,8.05,4.91,6.18,13.36,9.6,13.36,9.6a13.37,13.37,0,0,1,4.14.82S129.37,422.85,124.26,422.85Z" style="fill:#fff;stroke:#263238;stroke-linecap:round;stroke-linejoin:round"></path></clipPath><clipPath id="freepik--clip-path-6--inject-92"><path d="M147.22,250.78s6.19,69.06,2.3,87.52-8.3,18.29-9.32,24.67c-3.15,19.7-1.17,26.62-1.17,26.62-2.94,4.05-11.54-.85-20.15-.44-10,.47-11.49,11-24.55,4.36-5.13-2.61-11.11-2.91-14-1.88-2.53.92-6.23,1.88-6.23,1.88,6.66-10.78-2.34-37.81,1.34-44.66s-5.88-47.48,2.09-73.53C81.31,263.15,147.22,250.78,147.22,250.78Z" style="fill:#bfbfbf;stroke:#263238;stroke-linecap:round;stroke-linejoin:round"></path></clipPath><clipPath id="freepik--clip-path-7--inject-92"><path d="M111.23,169.19c3.29-6.66,10-16.39,35.87-18.58s30.28,20.83,29.49,27.6-3.38,22.55-10,27-27.31,21.48-27.31,21.48-32.38,17.48-42.8-7.56c-1.31-3.13,9.31-10.65,9.31-10.65S107.38,177,111.23,169.19Z" style="fill:#bfbfbf;stroke:#263238;stroke-linecap:round;stroke-linejoin:round"></path></clipPath><clipPath id="freepik--clip-path-8--inject-92"><path d="M164.31,158.81S155,209,150.81,214.87c-5.62,7.81-27.18,18.16-40.88,16.08-8.75-1.34-14.29-12.48-10.43-17.17,0,0-3.39-3.78-5.79,1.09,0,0-8.49,4.69-7.4,7.15,1.85,4.16-15.64,45.56-16.43,57.69s3.43,21.45,2.64,25.94-3.8,57.76-2.91,61.72,46.32-8.9,71.27-81c4-11.57,13.19-24,7.12-55.57-.94-4.9,5.45-5,5.45-9.16,0,0,12-2.71,14.58-4.72,4.32-3.37,12.52-41.95,8.57-42.62Z" style="fill:#F47814;stroke:#263238;stroke-linecap:round;stroke-linejoin:round"></path></clipPath><clipPath id="freepik--clip-path-9--inject-92"><path d="M168.08,126c-6.89-.27-17.66,3.56-23.42,16.88S119.27,155.31,115.22,163c0,0,1.54-4.66,3-6a23.37,23.37,0,0,1,8.44-5.33c4.33-1.71,3.77-12.1,6-20.27s10.29-15,23-14.11,33.15,10.28,28.38,26C184,143.26,185.13,126.65,168.08,126Z" style="fill:#F47814;stroke:#263238;stroke-linecap:round;stroke-linejoin:round"></path></clipPath></defs><g id="freepik--background-simple--inject-92"><path d="M423.84,405.21H85.44s-75.06-44.12-46-185.31c15-73,90.47-142.09,184-162.47L225.5,57c28-5.88,53.37-7.64,75.89-6.27,53.36,3.23,90.94,24,111.55,49.19,29.31,35.79-20.34,113.07,1.51,152.76S503.94,350.75,423.84,405.21Z" style="fill:#F47814"></path><path d="M423.84,405.21H85.44s-75.06-44.12-46-185.31c15-73,90.47-142.09,184-162.47L225.5,57c28-5.88,53.37-7.64,75.89-6.27,53.36,3.23,90.94,24,111.55,49.19,29.31,35.79-20.34,113.07,1.51,152.76S503.94,350.75,423.84,405.21Z" style="fill:#fff;opacity:0.7000000000000001"></path></g><g id="freepik--Window--inject-92"><polyline points="380.41 404.31 380.41 297.61 461.95 297.61" style="fill:none;stroke:#263238;stroke-linecap:round;stroke-linejoin:round"></polyline><polyline points="386.74 392.01 386.74 318 461.95 318" style="fill:none;stroke:#263238;stroke-linecap:round;stroke-linejoin:round"></polyline><path d="M388.85,288h32.33s-1.85,9.6-16.17,9.6S388.85,288,388.85,288Z" style="fill:none;stroke:#263238;stroke-linecap:round;stroke-linejoin:round"></path><path d="M395.44,276s-5.28,11.18,0,11.18S395.44,276,395.44,276Z" style="fill:none;stroke:#263238;stroke-linecap:round;stroke-linejoin:round"></path><line x1="384.36" y1="307.97" x2="430.25" y2="307.97" style="fill:none;stroke:#263238;stroke-linecap:round;stroke-linejoin:round"></line><line x1="436.85" y1="307.97" x2="441.33" y2="307.97" style="fill:none;stroke:#263238;stroke-linecap:round;stroke-linejoin:round"></line><line x1="450.35" y1="307.97" x2="466.12" y2="307.97" style="fill:none;stroke:#263238;stroke-linecap:round;stroke-linejoin:round"></line><polyline points="173.56 395.31 173.56 297.61 92.01 297.61 42.34 297.61 42.34 394.23" style="fill:none;stroke:#263238;stroke-linecap:round;stroke-linejoin:round"></polyline><polyline points="166.35 401.01 166.35 318 91.13 318 49.55 318 49.55 398.49" style="fill:none;stroke:#263238;stroke-linecap:round;stroke-linejoin:round"></polyline><path d="M164.68,288H132.35s1.84,9.6,16.16,9.6S164.68,288,164.68,288Z" style="fill:none;stroke:#263238;stroke-linecap:round;stroke-linejoin:round"></path><path d="M158.09,276s5.27,11.18,0,11.18S158.09,276,158.09,276Z" style="fill:none;stroke:#263238;stroke-linecap:round;stroke-linejoin:round"></path><line x1="169.17" y1="307.97" x2="123.27" y2="307.97" style="fill:none;stroke:#263238;stroke-linecap:round;stroke-linejoin:round"></line><line x1="116.68" y1="307.97" x2="112.2" y2="307.97" style="fill:none;stroke:#263238;stroke-linecap:round;stroke-linejoin:round"></line><line x1="103.18" y1="307.97" x2="87.41" y2="307.97" style="fill:none;stroke:#263238;stroke-linecap:round;stroke-linejoin:round"></line><polyline points="198.57 112.08 198.57 96.41 355.38 96.41 355.38 253.22 212.18 253.22" style="fill:none;stroke:#263238;stroke-linecap:round;stroke-linejoin:round"></polyline><line x1="198.57" y1="253.22" x2="198.57" y2="120.03" style="fill:none;stroke:#263238;stroke-linecap:round;stroke-linejoin:round"></line><polyline points="206.06 153.65 206.06 104.01 274.68 104.01 274.68 172.63 206.06 172.63 206.06 157.75" style="fill:none;stroke:#263238;stroke-linecap:round;stroke-linejoin:round"></polyline><polyline points="347.89 147.8 347.89 172.63 279.27 172.63 279.27 104.01 347.89 104.01 347.89 140.54" style="fill:none;stroke:#263238;stroke-linecap:round;stroke-linejoin:round"></polyline><polyline points="274.68 177.01 274.68 245.63 206.06 245.63 206.06 177.01 269.62 177.01" style="fill:none;stroke:#263238;stroke-linecap:round;stroke-linejoin:round"></polyline><polyline points="297.89 245.63 279.27 245.63 279.27 177.01 347.89 177.01 347.89 245.63 307.68 245.63" style="fill:none;stroke:#263238;stroke-linecap:round;stroke-linejoin:round"></polyline></g><g id="freepik--Floor--inject-92"><ellipse cx="247.24" cy="439.48" rx="180.64" ry="24.8" style="fill:#F47814"></ellipse><line x1="48.56" y1="405.21" x2="457.66" y2="405.21" style="fill:none;stroke:#263238;stroke-miterlimit:10"></line></g><g id="freepik--Ribbon--inject-92"><path d="M189.87,62.33s-1.31,36.38,1,45.89-10.09,32.64-3.41,42.4-8.49,23-2.47,30.14-4.92,16.85-1.88,24S179,244.62,184.31,258L180,260.77s-7.22-19.7-4.25-26.36,4.58-22.61,1.95-29.84,6.15-15.7,3.4-22.71,7.9-14,3.47-23.76-6.93-17.59-.55-29.19,1.81-25.21.55-37.83a107.82,107.82,0,0,1,1-25.52Z" style="fill:#fff;stroke:#263238;stroke-linecap:round;stroke-linejoin:round"></path><path d="M381.6,65.69s2.56,69.32-4.77,85.21,4,25.49,1.57,33.82-11.82,17.75-8.25,23.54,10.63,5.91,2.49,17.48S371.05,254,371.05,254l-4.72,5s-8.54-15.24-5.05-20.82,15.59-14.8,8.22-24.53,2.49-22.91,2.14-31.91-11.06-22.66-1.24-34.55,7.46-82.8,7.46-82.8Z" style="fill:#fff;stroke:#263238;stroke-linecap:round;stroke-linejoin:round"></path><path d="M187,58.76s38.83,27.79,84.33,27.79c59.88,0,104.62-30.1,104.62-30.1l6.63,1.73s-38,34.05-110.33,34.05c-61.67,0-89.64-31.2-89.64-31.2Z" style="fill:#F47814;stroke:#263238;stroke-linecap:round;stroke-linejoin:round"></path><path d="M182.57,61S204.92,101,287.35,101s95.19-42.77,95.19-42.77l-6.63-1.73S363.7,95.94,288.67,95.94,187,58.76,187,58.76Z" style="fill:#fff;stroke:#263238;stroke-linecap:round;stroke-linejoin:round"></path><path d="M382.54,58.18s6.43,69.71,0,86S388,169.4,386,177.85s-10.81,18.38-6.92,24,10.94,5.3,3.46,17.31,0,28.32,0,28.32l-4.44,5.21s-9.37-14.74-6.21-20.5,14.74-15.65,6.84-25,1.2-23,.35-32-12.3-22-3.17-34.43,2.82-83.08,2.82-83.08Z" style="fill:#F47814;stroke:#263238;stroke-linecap:round;stroke-linejoin:round"></path><path d="M187,58.76s-2.43,37.18-.4,46.75-11.09,32.32-4.71,42.28-9.2,22.69-3.4,30.06-5.44,16.68-2.62,24-5.38,39.68-.46,53.22L171,257.66s-6.61-19.92-3.44-26.48,5.28-22.46,2.88-29.76,6.63-15.51,4.1-22.6,8.33-13.72,4.2-23.64-6.39-17.79.35-29.19,2.58-25.15,1.72-37.8S182.57,61,182.57,61Z" style="fill:#F47814;stroke:#263238;stroke-linecap:round;stroke-linejoin:round"></path></g><g id="freepik--character-2--inject-92"><path d="M241.59,280.93c-3.39-1.71-7.89,19.08,0,24.16s7.89-11.93,6.41-15.88S244.77,282.53,241.59,280.93Z" style="fill:#263238;stroke:#263238;stroke-miterlimit:10"></path><path d="M247.34,303.36,227,287s-16.08-1.55-18.79-4.45-6.78-7.42-7.41-9-2.68-5.71-2.68-5.71.29-1.81,3.16-1.81,9.17,5.24,11.54,5.24h3.69s-2.39-5.26-4.15-7.11-3-5.28.2-3.7,5.8,3.95,10,5.54,6.33,7.91,6.33,7.91,13.19,10,18.46,12.4" style="fill:#fff;stroke:#263238;stroke-linecap:round;stroke-linejoin:round"></path><path d="M266.22,245.89c-5.69,6.14-12.55,38.94-12.55,38.94s-4.22-5.17-5.27,0l-6.81-3.9s6.38,15.51,0,24.16l7.86,2.82s4.69,6.24,11.84,7.35,23.15-34.68,23.15-34.68Z" style="fill:#F47814"></path><g style="clip-path:url(#freepik--clip-path--inject-92)"><path d="M253.67,284.83s6,5.12,6.41,11.05" style="fill:none;stroke:#263238;stroke-linecap:round;stroke-linejoin:round"></path><path d="M284.44,280.58s-16,35.8-23.15,34.68-11.84-7.35-11.84-7.35l-3.24-1.16c1.55-4.16,3.87-9.3,5.49-7.84,2.64,2.38,0,7.35,0,7.35s6.86,10.32,8.38-2.9c1-9.06-1.92-14-6.41-18.53,1.37-6.33,7.57-33.56,12.55-38.94Z" style="fill-opacity:0.7000000000000001;opacity:0.2"></path></g><path d="M266.22,245.89c-5.69,6.14-12.55,38.94-12.55,38.94s-4.22-5.17-5.27,0l-6.81-3.9s6.38,15.51,0,24.16l7.86,2.82s4.69,6.24,11.84,7.35,23.15-34.68,23.15-34.68Z" style="fill:none;stroke:#263238;stroke-linecap:round;stroke-linejoin:round"></path><path d="M362.65,398.84s7.12-.53,8.44-1.06,3.42-2.37,7.64-2.9,7.92,6.59,10.82,7.91a53.65,53.65,0,0,0,10.28,3.7c2.9.52,4.49,3.16,6.33,3.16s5.28,2.9,4.49,4.48-37.45,1.59-48-3.16S362.65,398.84,362.65,398.84Z" style="fill:#fff;stroke:#263238;stroke-linecap:round;stroke-linejoin:round"></path><path d="M395.16,404s7.13-.53,8.44-1.06,3.43-2.37,7.65-2.9,7.91,6.59,10.82,7.91a52.93,52.93,0,0,0,10.28,3.69c2.9.53,4.49,3.17,6.33,3.17s5.28,2.9,4.48,4.48-37.45,1.59-48-3.16S395.16,404,395.16,404Z" style="fill:#fff;stroke:#263238;stroke-linecap:round;stroke-linejoin:round"></path><path d="M276.07,375.13s-11.26,12-10.8,24.17c.29,7.6,3.81,19.47,11.23,21.77C291,425.59,321.85,419,321.85,419s13.71,4.46,16.35,4.21,41.16,1.39,46.16-1.81,16.08-2.4,16.08-2.4,4.75-10-3.75-16.61l-6.27-.54s-11.61-1.93-15.83-7.12-7.86-5-7.86-5,10.24-41.45,2.35-71.15c-2-7.39-64.67,0-64.67,0Z" style="fill:#263238"></path><path d="M266.22,245.89s8.1-9.74,20.75-12.9,24.36,3.63,24.36,3.63,28.39,5,36.3,20.3c4.14,8,5.25,32.42,13.18,38.73,14.18,11.28,13.92,84.76,13.92,84.76l-2.15.41L370,339.21,351.9,382.14c-18.86,3-61,8.14-80.54-.91l32.4-66.67C282.59,295.12,261.82,265.43,266.22,245.89Z" style="fill:#F47814"></path><g style="clip-path:url(#freepik--clip-path-2--inject-92)"><path d="M303.76,314.56s8.21,6.57,12.68,2.78" style="fill:none;stroke:#263238;stroke-linecap:round;stroke-linejoin:round"></path><path d="M279.55,243.76S277.22,250.19,278,255" style="fill:none;stroke:#263238;stroke-linecap:round;stroke-linejoin:round"></path><path d="M304.16,245.89s-6.11,8.45-6.11,11.62" style="fill:none;stroke:#263238;stroke-linecap:round;stroke-linejoin:round"></path><path d="M358,293.43s3.92,7,0,12.42" style="fill:none;stroke:#263238;stroke-linecap:round;stroke-linejoin:round"></path><path d="M350,327.4s-27.89,40.38-58,42" style="fill:none;stroke:#263238;stroke-linecap:round;stroke-linejoin:round"></path><path d="M321,275.48s1.44,12.62,5.35,19.21" style="fill:none;stroke:#263238;stroke-linecap:round;stroke-linejoin:round"></path><path d="M299.71,272.93s-.79,13.32-7.65,19.12" style="fill:none;stroke:#263238;stroke-linecap:round;stroke-linejoin:round"></path><path d="M352.65,324.76c-2.84,8.7-6.62,35.61-51.54,43l7.3-8.18s-12-5.17-18.43-16.66l13.78-28.35a170.37,170.37,0,0,1-15.68-16.51c6.06,3.12,25.48,12.48,35.63,9.83,12.13-3.17,24.86-17.52,24.86-17.52s3,21.65,1.45,28.16C350,318.52,355.48,316.05,352.65,324.76Z" style="fill-opacity:0.7000000000000001;opacity:0.2"></path></g><path d="M266.22,245.89s8.1-9.74,20.75-12.9,24.36,3.63,24.36,3.63,28.39,5,36.3,20.3c4.14,8,5.25,32.42,13.18,38.73,14.18,11.28,13.92,84.76,13.92,84.76l-2.15.41L370,339.21,351.9,382.14c-18.86,3-61,8.14-80.54-.91l32.4-66.67C282.59,295.12,261.82,265.43,266.22,245.89Z" style="fill:none;stroke:#263238;stroke-linecap:round;stroke-linejoin:round"></path><path d="M289.06,233.42c-24.7,5.81-10.6,78.21-9.54,86.39s-2.9,18.46-1.85,20,3.69,25.17,1.32,28-1.5,12.54-1.5,12.54-5.36.69-6.41-1.34-4.22-1.71-4.22-1.71a13,13,0,0,0-2-3.15s4.74-2,3.6-6.08,2.07-23.27.4-28.28.45-26.11-.4-33.23-4.14-65.35,5.69-66.22c0,0,3.16-7.65,6.59-8.92S289.06,233.42,289.06,233.42Z" style="fill:#bfbfbf"></path><g style="clip-path:url(#freepik--clip-path-3--inject-92)"><path d="M277.9,362.33c.66,2.26-.1,4.22-1.06,6.71a32.89,32.89,0,0,0-2.57,11.43c-.34,0-.68-.08-1-.14a34,34,0,0,1,2.65-11.65c.92-2.4,1.59-4.13,1-6.07-.78-2.68-.66-9.49-.51-17.37s.31-16.95-.57-21.91c-1.69-9.46-4.35-61.05-4.06-68.32s6.79-18,7.07-18.42l.85.52c-.06.11-6.63,10.94-6.92,17.94-.29,7.25,2.36,58.67,4,68.1.64,3.57.74,9.13.7,14.91,0,0,0,0,0,0,0,.45,0,.9,0,1.36,0,2,0,3.92-.09,5.83C277.29,352.73,277.16,359.8,277.9,362.33Z" style="fill:#fff"></path><path d="M275,362.21c1.87,2.17-1.64,9.12-3.53,17.36a1.73,1.73,0,0,1-.4-.5,3,3,0,0,0-1.85-1.44c2-5.14,3.84-10.55,3-11.73-1.59-2.37-1.09-35.6-1.87-47.47-.31-4.76-2.26-19.14-3.05-34.87-.36-19,.6-42.61,6.83-43.16,0,0,3.15-7.64,6.58-8.91-.32.46-10.89,15.44-10.36,22.39s-.23,54.81,1.87,59.81,1.31,24.78,1.31,27.68S272.47,359.24,275,362.21Z" style="fill:#fff"></path></g><path d="M289.06,233.42c-24.7,5.81-10.6,78.21-9.54,86.39s-2.9,18.46-1.85,20,3.69,25.17,1.32,28-1.5,12.54-1.5,12.54-5.36.69-6.41-1.34-4.22-1.71-4.22-1.71a13,13,0,0,0-2-3.15s4.74-2,3.6-6.08,2.07-23.27.4-28.28.45-26.11-.4-33.23-4.14-65.35,5.69-66.22c0,0,3.16-7.65,6.59-8.92S289.06,233.42,289.06,233.42Z" style="fill:none;stroke:#263238;stroke-linecap:round;stroke-linejoin:round"></path><path d="M305.23,239.37c-1.71,5.58-1.1,14.66-2.36,28.22-2.12,22.76,12.12,69.55,10.54,80.33-.81,5.51.61,11.61.81,17.14a53.62,53.62,0,0,1-.37,10.29c-.16,1-3.15,6.78-3.15,6.78s4.64.58,5.62-.09c.33-.23.42-.67.66-1,.6-.78,1.84-.54,2.7-.06s1.76,1.13,2.72.92c0,0,4.13-8.54,1.86-23-1.09-6.92,0-14.68-1.62-21.53-2.38-10.28-10.82-47.42-6.86-64.49s7.73-27.81,4.48-33.75-7.25-4-7.25-4c-12.13-9.09-22.81-3-22.81-3S306.68,234.62,305.23,239.37Z" style="fill:#bfbfbf"></path><g style="clip-path:url(#freepik--clip-path-4--inject-92)"><path d="M314.64,382.35c-.35,0-.73,0-1.1,0,4.58-9.84,3.67-15.69,2.86-21a28.2,28.2,0,0,1-.46-7.91c1.06-8.79-6.89-55.52-10.05-72.78-1-5.36.13-16.07,1.11-25.52.77-7.4,1.5-14.38.93-16.57-.81-3.12-4.81-6.43-7.53-8.39a18.24,18.24,0,0,1,2,.24h0c2.66,2.06,5.75,5,6.5,7.9.61,2.36-.09,9.11-.9,16.92-1,9.38-2.08,20-1.12,25.24.11.62,11.35,62.34,10.06,73.08a27.1,27.1,0,0,0,.45,7.63C318.22,366.59,319.13,372.51,314.64,382.35Z" style="fill:#fff"></path><path d="M319.41,380.85a3,3,0,0,0-1.37-.29c2.22-10-.61-16.79-.48-18.88a70,70,0,0,0,0-17.41c-1.13-10-8.36-59.07-9.15-64.63s4.74-35.06,3.16-40.31c-.81-2.71-3.1-5.62-5.13-7.81a25.85,25.85,0,0,1,6.57,3.63,3.79,3.79,0,0,1,1.51-.32,13.57,13.57,0,0,1,.41,7.85c-2.3,10.61-5.26,35.09-4.44,42.76s10.9,65.2,9.68,68.08C319.3,355.59,321.29,368.9,319.41,380.85Z" style="fill:#fff"></path></g><path d="M305.23,239.37c-1.71,5.58-1.1,14.66-2.36,28.22-2.12,22.76,12.12,69.55,10.54,80.33-.81,5.51.61,11.61.81,17.14a53.62,53.62,0,0,1-.37,10.29c-.16,1-3.15,6.78-3.15,6.78s4.64.58,5.62-.09c.33-.23.42-.67.66-1,.6-.78,1.84-.54,2.7-.06s1.76,1.13,2.72.92c0,0,4.13-8.54,1.86-23-1.09-6.92,0-14.68-1.62-21.53-2.38-10.28-10.82-47.42-6.86-64.49s7.73-27.81,4.48-33.75-7.25-4-7.25-4c-12.13-9.09-22.81-3-22.81-3S306.68,234.62,305.23,239.37Z" style="fill:none;stroke:#263238;stroke-linecap:round;stroke-linejoin:round"></path><path d="M292.06,247.2c.72,4.92-1.48,8.15-1.86,12.08a25.88,25.88,0,0,0,1.06,8.57c-8-5.53-9.13-20.9-9.13-20.9-1.39-1.79-3.89-4.78-6.29-7.62l-3.92-4.61L269.59,232l24.34-12.35s1.45,11.49,2.5,13.07,6.34,4.21,6.34,4.21C304.09,243.42,292.06,247.2,292.06,247.2Z" style="fill:#fff;stroke:#263238;stroke-linecap:round;stroke-linejoin:round"></path><path d="M316.44,324.37c-1.41,3.72-6,19.81,13.41,23.32s10.68-33,5.95-33.95S316.44,324.37,316.44,324.37Z" style="fill:#263238;stroke:#263238;stroke-miterlimit:10"></path><path d="M324.5,313.74s-6.85,12.4-14.5,20.18-19.8,15.4-19.8,15.4l9.27,4.2s33.06-9,38.07-20.16-.11-18.3-.11-18.3" style="fill:#fff;stroke:#263238;stroke-linecap:round;stroke-linejoin:round"></path><path d="M334.9,255c-9.49,2.27-14.8,51.47-14,58.52s-4.47,8.26-4.47,10.82c0,0,17.3-1.41,21.1,9,4.61,12.65-7.69,14.33-7.69,14.33s13,4,12.44-9.68c0,0,5.91-7.12,3.74-12.16s3.41-25.61,2.47-30.73,4.47-24.87-.87-38.2" style="fill:#F47814;stroke:#263238;stroke-linecap:round;stroke-linejoin:round"></path><path d="M299.71,338.82s-2.55,9.95-14.39,9.95a18.81,18.81,0,0,1-16.57-9.95S286.13,335.51,299.71,338.82Z" style="fill:#757575;stroke:#263238;stroke-linecap:round;stroke-linejoin:round"></path><path d="M277.52,322.47s8,15.08,1.38,14.88S277.52,322.47,277.52,322.47Z" style="fill:#F47814;stroke:#263238;stroke-linecap:round;stroke-linejoin:round"></path><path d="M278.54,329.91s2.52,5.37,0,5.35S278.54,329.91,278.54,329.91Z" style="fill:#fff"></path><path d="M297,346.69c-2.8,0-8.11-5.44-12-2.68,0,0-3-2.17-5.36.6,0,0-1.65-1.25-4.68.3,0,0-2.13-2.19-4.05-1.13s2,6,4.05,8.74,6.53,2.18,6.53,2.18c1.26,1,4.23,1.14,6.41.37,0,0,3.95,1.53,7.27.25,0,0,4.37.26,5.68-.62a15,15,0,0,0,5.26-5.93s1.19-6.33-1.58-7.72-2.88-6.26-4.84-5.79-2.76,5.3-2.17,7.8a13.73,13.73,0,0,1,.76,2.47" style="fill:#fff;stroke:#263238;stroke-linecap:round;stroke-linejoin:round"></path><path d="M216.48,271.28a20.89,20.89,0,0,0,4.22,3.59" style="fill:none;stroke:#263238;stroke-linecap:round;stroke-linejoin:round"></path><path d="M199.14,270c2.38-1.77,3.17-1.79,5.05,0s5.14,4,6.52,4" style="fill:none;stroke:#263238;stroke-linecap:round;stroke-linejoin:round"></path><path d="M201.32,274.53s1.19-2.16,2.08-1.45,6.33,4.85,8.7,4.95" style="fill:none;stroke:#263238;stroke-linecap:round;stroke-linejoin:round"></path><path d="M205.32,279.43c.75-.31,1.44-1.2,2.53-.61s4.74,2.15,6.62,1.77" style="fill:none;stroke:#263238;stroke-linecap:round;stroke-linejoin:round"></path><path d="M227,287s3.52.32,3.13-3.14" style="fill:none;stroke:#263238;stroke-linecap:round;stroke-linejoin:round"></path><path d="M280.78,233.33a7.53,7.53,0,0,1-4.94,6l-3.92-4.61C276.14,233.87,280.78,233.33,280.78,233.33Z" style="fill:#263238"></path><path d="M276.53,186.93s-16.61-.84-15.24,11.21c0,0-.91-3.56,3.61-6.59,0,0-6.22,7.64,1.45,12.66s18.09-7.53,18.09-7.53Z" style="fill:#263238"></path><path d="M282.71,233.36c-6.41,5.77-19.07,3.11-20.78,1.1-.65-.77-2.48-8.94-1.2-19.27.28-2.25,2.17-4.88,2.69-7.12.89-3.92.67-7.37,2.49-10.59,3.67-6.47,11.68-11.77,26-6.94,26.49,8.91,9.28,36-3.86,38" style="fill:#fff;stroke:#263238;stroke-linecap:round;stroke-linejoin:round"></path><path d="M268.5,209c-3.09,5.24-7.8,4.77-7.15,7.12.57,2,4.35,3.53,4.35,3.53" style="fill:#fff;stroke:#263238;stroke-linecap:round;stroke-linejoin:round"></path><path d="M274.57,205.41s4.08.46,6.21,3.58" style="fill:none;stroke:#263238;stroke-linecap:round;stroke-linejoin:round"></path><path d="M275.49,212.13c-.27.75-.89,1.21-1.38,1s-.65-.93-.37-1.68.9-1.21,1.38-1S275.77,211.38,275.49,212.13Z" style="fill:#263238"></path><path d="M266.72,208.87c-.28.75-.9,1.21-1.39,1s-.65-.94-.37-1.69.9-1.21,1.38-1S267,208.12,266.72,208.87Z" style="fill:#263238"></path><path d="M268.34,203s-2.91-2.14-4-.6" style="fill:none;stroke:#263238;stroke-linecap:round;stroke-linejoin:round"></path><path d="M263.62,223.28s5.59,2.74,10.57,1.59a5.42,5.42,0,0,1-5.85,2.92c-4.07-.82-3.29-3-3.29-3" style="fill:none;stroke:#263238;stroke-linecap:round;stroke-linejoin:round"></path><path d="M286.75,202.23a3.41,3.41,0,0,1,.72,1.14s-4.09,4.6-2.77,7.27,1.45,6.68-.26,9l1.62,1.1s4.71-9.11,7.35-2.68a12.74,12.74,0,0,1-1.35,11.77h2.8a19.92,19.92,0,0,0,8-6.57c2.36-3.62,3.94-11.51,5.51-14.72Z" style="fill:#263238"></path><path d="M288.66,217.26s6.2-2.64,8.18,0,1.45,7.78-.93,9.1-7,6.63-8.83,4.7-.61-3.16-.61-3.16" style="fill:#fff;stroke:#263238;stroke-linecap:round;stroke-linejoin:round"></path><path d="M274.57,185s-9.68,1.57-5,10.35,9.71,8.64,9.71,8.64-6.31-3.36-8.3-9.49c0,0,5.4,8.62,18.45,12.75s19,1.36,19,1.36,4.47-4.88-2.56-14.38S277.36,182.18,274.57,185Z" style="fill:#263238"></path><path d="M266.93,221.45a10.23,10.23,0,0,1,3.32,0c1.83.29,4.15,1.73,6,1.83s1.58-1,1.58-1,.94,1.22-1,2.06-9.24-1.38-10.08-.79C266.74,223.57,266.24,221.89,266.93,221.45Z" style="fill:#263238"></path><path d="M266.34,223.28s.4-1.19,0-1.73a2.79,2.79,0,0,0-2.72-1.14c-1.43.2-2.88-.25-2.33-1.29,0,0-1.43,1.44-.12,2.48S265.26,222,266.34,223.28Z" style="fill:#263238"></path><path d="M320.17,417.68s-3.92,2-7.28-8.66a35.65,35.65,0,0,1,0-20.37" style="fill:none;stroke:#fff;stroke-linecap:round;stroke-linejoin:round"></path><path d="M307.22,396.16s-14.31,14.38-21.43,11" style="fill:none;stroke:#fff;stroke-linecap:round;stroke-linejoin:round"></path><path d="M368.08,392s8.55,10.48,6.65,14.44" style="fill:none;stroke:#fff;stroke-linecap:round;stroke-linejoin:round"></path><path d="M364.91,392s-7.12,14.44-12.26,13" style="fill:none;stroke:#fff;stroke-linecap:round;stroke-linejoin:round"></path><path d="M320.5,318s9-4,11.77,0" style="fill:none;stroke:#263238;stroke-linecap:round;stroke-linejoin:round"></path><path d="M285,344c-.51,1-1.45,2.34,2.75,4.23a31.43,31.43,0,0,1,6.63,3.91" style="fill:none;stroke:#263238;stroke-linecap:round;stroke-linejoin:round"></path><path d="M279.66,344.61c-1.24,1.86-.54,3,.89,3.84s4.7,2.17,5.24,3.16a4.88,4.88,0,0,0,1.34,1.53" style="fill:none;stroke:#263238;stroke-linecap:round;stroke-linejoin:round"></path><path d="M275,344.91c-.86.86-1.16,1.45.77,3a53,53,0,0,1,4.4,4.23" style="fill:none;stroke:#263238;stroke-linecap:round;stroke-linejoin:round"></path></g><g id="freepik--character-1--inject-92"><path d="M129.8,422.16a36.93,36.93,0,0,1-9.11-1.68c-2.74-.79-10-4.61-11.77-4.93-1.47-.28-4.36.19-7.22-.87a8.75,8.75,0,0,1-1.61-.77c-2.13-1.3-1.45-4.7,2.14-11.34a61.07,61.07,0,0,0,5.94-22.7c0-.53,0-1.05,0-1.57l2.86,1.17,10.42,4.28s-4,11.69-2.59,19.34a11.31,11.31,0,0,0,.84,2.73c3.34,7.15,10.76,12.45,10.76,12.45a13.18,13.18,0,0,1,3.83,1.75S134.78,423.35,129.8,422.16Z" style="fill:#fff;stroke:#263238;stroke-linecap:round;stroke-linejoin:round"></path><path d="M118.9,403.09c-4.05,4.47-9.79,9.63-15.88,11.36a6.54,6.54,0,0,1-1.32.23,8.75,8.75,0,0,1-1.61-.77c-2.13-1.3-1.45-4.7,2.14-11.34a61.07,61.07,0,0,0,5.94-22.7,26.57,26.57,0,0,1,2.9-.4l10.42,4.28S117.5,395.44,118.9,403.09Z" style="fill:#263238"></path><path d="M195.21,235.31s3.76,1.56,4.15,3.15-3.56,3.44-4.15,3.5-7,6.43-11.12,3.95S195.21,235.31,195.21,235.31Z" style="fill:#fff;stroke:#263238;stroke-linecap:round;stroke-linejoin:round"></path><path d="M124.26,422.85a36.83,36.83,0,0,1-9.26.48c-2.84-.14-10.81-2.15-12.59-2.06s-5.26,1.67-9,.47c-2.37-.77-2.5-4.24-.56-11.53q.08-.27.15-.6c1-4.41,2.22-15.21,0-24.39l14.18,2.21a61.85,61.85,0,0,0,.42,13.81c.52,3.11,1.44,6.07,3,8.05,4.91,6.18,13.36,9.6,13.36,9.6a13.37,13.37,0,0,1,4.14.82S129.37,422.85,124.26,422.85Z" style="fill:#fff"></path><g style="clip-path:url(#freepik--clip-path-5--inject-92)"><path d="M107.65,401.24a24.54,24.54,0,0,1-10,6,13.79,13.79,0,0,0-4.65,2.4c1-4.41,2.22-15.21,0-24.39l14.18,2.21A61.85,61.85,0,0,0,107.65,401.24Z" style="fill-opacity:0.7000000000000001;opacity:0.2"></path></g><path d="M124.26,422.85a36.83,36.83,0,0,1-9.26.48c-2.84-.14-10.81-2.15-12.59-2.06s-5.26,1.67-9,.47c-2.37-.77-2.5-4.24-.56-11.53q.08-.27.15-.6c1-4.41,2.22-15.21,0-24.39l14.18,2.21a61.85,61.85,0,0,0,.42,13.81c.52,3.11,1.44,6.07,3,8.05,4.91,6.18,13.36,9.6,13.36,9.6a13.37,13.37,0,0,1,4.14.82S129.37,422.85,124.26,422.85Z" style="fill:none;stroke:#263238;stroke-linecap:round;stroke-linejoin:round"></path><path d="M147.22,250.78s6.19,69.06,2.3,87.52-8.3,18.29-9.32,24.67c-3.15,19.7-1.17,26.62-1.17,26.62-2.94,4.05-11.54-.85-20.15-.44-10,.47-11.49,11-24.55,4.36-5.13-2.61-11.11-2.91-14-1.88-2.53.92-6.23,1.88-6.23,1.88,6.66-10.78-2.34-37.81,1.34-44.66s-5.88-47.48,2.09-73.53C81.31,263.15,147.22,250.78,147.22,250.78Z" style="fill:#bfbfbf"></path><g style="clip-path:url(#freepik--clip-path-6--inject-92)"><path d="M149,273.3C143.77,293,129.08,343,120.36,348.77c-10.81,7.11-14.2,1.56-21.47,8-6.35,5.64-12,37.21-23.13,32.81,3.3-12.34-3.56-34.63-.27-40.76,2.26-4.22-.49-21.22-1.08-39.74,20.42-15.48,58.76-40.64,73.48-50.21C148.2,262.73,148.57,267.7,149,273.3Z" style="fill-opacity:0.7000000000000001;opacity:0.2"></path><path d="M140.2,363c-3.15,19.7-1.17,26.62-1.17,26.62a3.28,3.28,0,0,1-.68.71h0c-15,2.19-21.75-18.27-6.9-25.46,5.38-2.6,10.05-7.46,13.93-12.86C142.94,357.46,140.86,358.84,140.2,363Z" style="fill-opacity:0.7000000000000001;opacity:0.2"></path><path d="M130.64,373.84a20.68,20.68,0,0,0-2.35,4.46" style="fill:none;stroke:#263238;stroke-linecap:round;stroke-linejoin:round"></path><path d="M141.54,359c-3,3.73-5.9,7.53-8.64,11.45" style="fill:none;stroke:#263238;stroke-linecap:round;stroke-linejoin:round"></path><path d="M137.38,312.63s-8.58,37.45-26.25,39.56" style="fill:none;stroke:#263238;stroke-linecap:round;stroke-linejoin:round"></path></g><path d="M147.22,250.78s6.19,69.06,2.3,87.52-8.3,18.29-9.32,24.67c-3.15,19.7-1.17,26.62-1.17,26.62-2.94,4.05-11.54-.85-20.15-.44-10,.47-11.49,11-24.55,4.36-5.13-2.61-11.11-2.91-14-1.88-2.53.92-6.23,1.88-6.23,1.88,6.66-10.78-2.34-37.81,1.34-44.66s-5.88-47.48,2.09-73.53C81.31,263.15,147.22,250.78,147.22,250.78Z" style="fill:none;stroke:#263238;stroke-linecap:round;stroke-linejoin:round"></path><path d="M158.41,166.6s-.37,35.41.66,45.5c1.11,10.8-.11,17.48,2.35,19.13,3.61,2.44,19.55,7.23,19.55,7.23l5.54-5.17-12.86-13.72s1.9-34.24-1-41.89S158.41,166.6,158.41,166.6Z" style="fill:#fff;stroke:#263238;stroke-linecap:round;stroke-linejoin:round"></path><path d="M111.23,169.19c3.29-6.66,10-16.39,35.87-18.58s30.28,20.83,29.49,27.6-3.38,22.55-10,27-27.31,21.48-27.31,21.48-32.38,17.48-42.8-7.56c-1.31-3.13,9.31-10.65,9.31-10.65S107.38,177,111.23,169.19Z" style="fill:#bfbfbf"></path><g style="clip-path:url(#freepik--clip-path-7--inject-92)"><path d="M157.34,212.23c-8.26,6.47-18,14.49-18,14.49s-18.8,10.15-32.36,3.9a126,126,0,0,1-3.38-20.41c1.3-1,2.25-1.7,2.25-1.7s1.56-31.55,5.41-39.32a33.12,33.12,0,0,1,1.87-3.33c2.08-.25,2.54,3.18,3,8.47,0,0,10,36.92,15.14,40s14-7.74,21.86-4C154.46,210.92,155.91,211.55,157.34,212.23Z" style="fill-opacity:0.7000000000000001;opacity:0.2"></path><path d="M117.86,191.56s-1.18,20.08-9.89,15.64" style="fill:none;stroke:#263238;stroke-linecap:round;stroke-linejoin:round"></path><path d="M105.82,208.51s-5.14,7-2.86,10.61" style="fill:none;stroke:#263238;stroke-linecap:round;stroke-linejoin:round"></path><path d="M136.54,174.33c-.09,1.68,5.52,21.11,16.6,16.32s8.11-12.8,8.11-12.8" style="fill:none;stroke:#263238;stroke-linecap:round;stroke-linejoin:round"></path></g><path d="M111.23,169.19c3.29-6.66,10-16.39,35.87-18.58s30.28,20.83,29.49,27.6-3.38,22.55-10,27-27.31,21.48-27.31,21.48-32.38,17.48-42.8-7.56c-1.31-3.13,9.31-10.65,9.31-10.65S107.38,177,111.23,169.19Z" style="fill:none;stroke:#263238;stroke-linecap:round;stroke-linejoin:round"></path><path d="M129.16,156.79c-5.89,3.5,8.64,8.23,15.14,18.06s7.29,17,14.71,4.68-3.87-22.35-3.87-22.35S144,148,129.16,156.79Z" style="fill:#fff;stroke:#263238;stroke-linecap:round;stroke-linejoin:round"></path><path d="M164.31,158.81S155,209,150.81,214.87c-5.62,7.81-27.18,18.16-40.88,16.08-8.75-1.34-14.29-12.48-10.43-17.17,0,0-3.39-3.78-5.79,1.09,0,0-8.49,4.69-7.4,7.15,1.85,4.16-15.64,45.56-16.43,57.69s3.43,21.45,2.64,25.94-3.8,57.76-2.91,61.72,46.32-8.9,71.27-81c4-11.57,13.19-24,7.12-55.57-.94-4.9,5.45-5,5.45-9.16,0,0,12-2.71,14.58-4.72,4.32-3.37,12.52-41.95,8.57-42.62Z" style="fill:#F47814"></path><g style="clip-path:url(#freepik--clip-path-8--inject-92)"><path d="M167.31,165a14.55,14.55,0,0,0-3.92-1.32c-.11.58-.23,1.22-.36,1.89a15.49,15.49,0,0,1,4.28,1.68Z" style="fill:#fff"></path><path d="M159.43,201.42l1.54-8.86h2.65a1,1,0,0,0,1-.82l1.94-10.54a1,1,0,0,0-.51-1.06l-2.5-1.32a21.84,21.84,0,0,0-.53-12.59c0-.06-.05-.12-.07-.17l-.89,4.51a21.64,21.64,0,0,1-.64,8.45,1,1,0,0,0,.49,1.19l2.55,1.35-1.66,9h-2.65a1,1,0,0,0-1,.83l-1.79,10.25a1,1,0,0,0,.33.93l1.72,1.48-2.69,9.14-2.12.15a1,1,0,0,0-.92.81c-.52.87-4.47,4-7.91,6.45a1,1,0,0,0-.42.81v2.33l-4.64,3.87-.46-1.24a1,1,0,0,0-.6-.6,1,1,0,0,0-.85.09l-8,4.87a1,1,0,0,0-.42,1.2l1.35,3.67c-5.8,1.29-8.36,1.87-9.5,2.15-.3-1-.76-2.94-1.11-4.63a1,1,0,0,0-.44-.63,1,1,0,0,0-.75-.14l-9.23,2a1,1,0,0,0-.75.68l-.7,2.24a29.91,29.91,0,0,1-6.75-2.4l1.13-2.24a1,1,0,0,0-.32-1.27L97,226.91a1,1,0,0,0-1.2,0l-1.94,1.55-2.3-6.59,3.71-1.9a1,1,0,0,0,.49-.58,1,1,0,0,0-.06-.77c-.66-1.26-.23-3.84.47-6.2a4,4,0,0,0-2.43,2.41l-.21.11a9.68,9.68,0,0,0,0,3.65l-3.7,1.89a1,1,0,0,0-.49,1.22l3.05,8.74a1,1,0,0,0,1.57.46l2.46-2,5,3.49-1.19,2.38a1,1,0,0,0,.44,1.35c.64.32,6.31,3.12,9.28,3.09a1,1,0,0,0,.94-.7l.77-2.43,7.68-1.64c1.07,4.91,1.4,5.08,1.81,5.29a1.08,1.08,0,0,0,.48.13.88.88,0,0,0,.34-.08c.51-.15,7.19-1.65,11.28-2.55a1,1,0,0,0,.66-.5A1,1,0,0,0,134,236l-1.46-4,6.3-3.81.52,1.43a1,1,0,0,0,1.58.42L147,225a1,1,0,0,0,.36-.77v-2.28c5.34-3.83,7.25-5.68,7.94-6.64l2.26-.15a1,1,0,0,0,.89-.72L161.51,204a1,1,0,0,0-.3-1Z" style="fill:#fff"></path><path d="M69.58,356.68c-.09,3-.14,5.63-.13,7.52,11.3-3.58,37.13-15.73,58.84-54.95,11.15-20.15,17.31-35.93,20.71-47h0a66.31,66.31,0,0,0,1-10.08C140.63,276,111.1,343,69.58,356.68Z" style="fill:#fff"></path><path d="M112.19,312.69c-18,20.62-33.74,28.58-42.13,31.58,0,.78-.06,1.55-.1,2.31,8.23-3.29,26-12,43-31.29,17.26-19.59,31.16-51.37,37.1-66.24,0-2.09-.14-4.29-.35-6.62C145.46,253.58,130.17,292.08,112.19,312.69Z" style="fill:#fff"></path><path d="M117,300.1c17.48-21.65,27.76-47.13,32.37-60.52h0c-.09-.74-.18-1.49-.29-2.26-4.21,12.65-14.57,39.51-32.85,62.16a103.45,103.45,0,0,1-45.54,32.46L70.63,333A104.31,104.31,0,0,0,117,300.1Z" style="fill:#fff"></path><path d="M174.89,172.11c-.72,7.59-3.78,34.63-11.94,46.95l1.51-.51c7.57-12.5,10.5-36.69,11.33-45.3Z" style="fill:#fff"></path><path d="M177.15,174.72c-1,10.15-4,30.64-12.07,43.61a12.21,12.21,0,0,0,2.95-1.44C172.11,213.71,179.65,179.12,177.15,174.72Z" style="fill:#fff"></path><path d="M159.83,220c-3.34,1-6.38,1.63-6.38,1.63,0,4.2-6.39,4.26-5.45,9.16.6,3.11,1.05,6,1.37,8.79-12.48,6.9-30.05,14.34-36.89,6.33-2.9-3.39-4.45-9.08-5.16-15.65a12,12,0,0,0,2.61.71c10.64,1.62,26-4.26,35-10.63C148.39,221.44,154.46,220.87,159.83,220Z" style="fill-opacity:0.7000000000000001;opacity:0.2"></path><path d="M70.15,342.4c.72-15.13,1.79-32.19,2.29-36.18a29.62,29.62,0,0,0,4.67,6.07C90.56,325.55,88.63,368.27,70.15,342.4Z" style="fill-opacity:0.7000000000000001;opacity:0.2"></path><path d="M97.87,287.59a16.57,16.57,0,0,1-4.67,1.3" style="fill:none;stroke:#263238;stroke-linecap:round;stroke-linejoin:round"></path><path d="M141.73,239C131,256,118,274,101.49,285.7" style="fill:none;stroke:#263238;stroke-linecap:round;stroke-linejoin:round"></path><path d="M92.42,243.21c.19,6.62.21,14.87,3.73,20.75" style="fill:none;stroke:#263238;stroke-linecap:round;stroke-linejoin:round"></path><path d="M93.5,215a236.52,236.52,0,0,0-1.15,24.24" style="fill:none;stroke:#263238;stroke-linecap:round;stroke-linejoin:round"></path><path d="M72.57,303.36s4.28,17,14.56,10.38" style="fill:none;stroke:#263238;stroke-linecap:round;stroke-linejoin:round"></path></g><path d="M164.31,158.81S155,209,150.81,214.87c-5.62,7.81-27.18,18.16-40.88,16.08-8.75-1.34-14.29-12.48-10.43-17.17,0,0-3.39-3.78-5.79,1.09,0,0-8.49,4.69-7.4,7.15,1.85,4.16-15.64,45.56-16.43,57.69s3.43,21.45,2.64,25.94-3.8,57.76-2.91,61.72,46.32-8.9,71.27-81c4-11.57,13.19-24,7.12-55.57-.94-4.9,5.45-5,5.45-9.16,0,0,12-2.71,14.58-4.72,4.32-3.37,12.52-41.95,8.57-42.62Z" style="fill:none;stroke:#263238;stroke-linecap:round;stroke-linejoin:round"></path><path d="M118.35,162.65c12-3.37,8.69,32.92,9.36,44.09s1.45,17.66,1.45,17.66a77.72,77.72,0,0,1,9.28,5.36c7.95,5.77,26.39,7.66,26.39,7.66v6.91s-36.08.42-46.9-4.33c-5-2.21-5.51-18.91-7.08-35.52C109.06,185.46,109.06,165.25,118.35,162.65Z" style="fill:#fff;stroke:#263238;stroke-linecap:round;stroke-linejoin:round"></path><path d="M167.45,234.23s2.55,9.94,14.38,9.94a18.81,18.81,0,0,0,16.57-9.94S181,230.92,167.45,234.23Z" style="fill:#757575;stroke:#263238;stroke-linecap:round;stroke-linejoin:round"></path><path d="M189.64,217.87s-8,15.08-1.39,14.89S189.64,217.87,189.64,217.87Z" style="fill:#F47814;stroke:#263238;stroke-linecap:round;stroke-linejoin:round"></path><path d="M188.62,225.31s-2.53,5.37,0,5.36S188.62,225.31,188.62,225.31Z" style="fill:#fff"></path><path d="M163.33,237.22s4-1.56,7.22-1.19a71.19,71.19,0,0,1,9.49,2.43c-.92,1.86-4.08,1.27-4.08,1.27s4.2,2.42,7,2,4.79-.65,5.74,0-4.68,5.68-9.94,5.77-13.42-1.12-16.37-3.71" style="fill:#fff;stroke:#263238;stroke-linecap:round;stroke-linejoin:round"></path><path d="M129.16,224.4s-6.08-1-7.53,1.41" style="fill:none;stroke:#263238;stroke-linecap:round;stroke-linejoin:round"></path><path d="M172.29,136.69s1.61,3,.86,4.55S166.56,142,172.29,136.69Z" style="fill:#F47814;stroke:#263238;stroke-linecap:round;stroke-linejoin:round"></path><path d="M172.12,136.9a19.12,19.12,0,0,0-1.27-11" style="fill:none;stroke:#fff;stroke-linecap:round;stroke-linejoin:round"></path><path d="M176,239.73a9.63,9.63,0,0,0-3.54,0" style="fill:none;stroke:#263238;stroke-linecap:round;stroke-linejoin:round"></path><path d="M177.34,244.87a25.69,25.69,0,0,0,4.55,0c1.12-.27,5.75-1.47,6.47-2.19" style="fill:none;stroke:#263238;stroke-linecap:round;stroke-linejoin:round"></path><path d="M194.75,241.71c-1-.86-3.16-.24-3.16-.24" style="fill:none;stroke:#263238;stroke-linecap:round;stroke-linejoin:round"></path><path d="M195.3,238.46s3.71-.8,3.76,1.09" style="fill:none;stroke:#263238;stroke-linecap:round;stroke-linejoin:round"></path><path d="M188.77,243.35s1.67-.67,2.62,0" style="fill:none;stroke:#263238;stroke-linecap:round;stroke-linejoin:round"></path><path d="M147,163.62c-.8.86-.77,8.44,5.66,15.71,0,0,3.94-3.71,7-4S147,163.62,147,163.62Z" style="fill:#263238"></path><path d="M144.77,157.19a98.64,98.64,0,0,0,4.73,46.19s16.17-21.68,13.65-37.85" style="fill:none;stroke:#263238;stroke-linecap:round;stroke-linejoin:round"></path><path d="M182.34,150.46c-3.16,12.56-.07,23.76-2.73,32.73s-11.88-10.68-11.88-10.68l1.8-.74s4.74,9.83,6.74,9.18.68-14.25.68-14.25,1.31,12.88-6.47,3.28,5.79-18.31,5.79-18.31Z" style="fill:#263238"></path><path d="M141.68,152c-5.34-17.85,4.95-36.95,21.63-30.06,14.07,5.81,19.52,14.17,16.91,28.29-.6,3.26-2.61,4.09-3,7.48A21.07,21.07,0,0,1,170,171.13c-4.64,4.28-7.13,8.29-10.43,8-10.2-1-14.52-15.39-13.76-18.61" style="fill:#fff;stroke:#263238;stroke-linecap:round;stroke-linejoin:round"></path><path d="M156.55,149.66a7.91,7.91,0,0,1,9.4.8" style="fill:none;stroke:#263238;stroke-linecap:round;stroke-linejoin:round"></path><path d="M171.57,152.27s4.63-1.51,6.74,1.14" style="fill:none;stroke:#263238;stroke-linecap:round;stroke-linejoin:round"></path><path d="M169.55,157a61.69,61.69,0,0,0,.92,6.91c.68,3.47-1.22,3.17-4.91,1.45" style="fill:none;stroke:#263238;stroke-linecap:round;stroke-linejoin:round"></path><path d="M161.15,157.55c-.27.87-1,1.44-1.51,1.26s-.8-1-.53-1.9.95-1.44,1.52-1.26S161.43,156.68,161.15,157.55Z" style="fill:#263238"></path><path d="M174.58,158.94c-.27.87-1,1.43-1.51,1.25s-.8-1-.53-1.89,1-1.44,1.51-1.26S174.85,158.06,174.58,158.94Z" style="fill:#263238"></path><path d="M166.65,169.67s-6.17.42-9.17-2.59" style="fill:none;stroke:#263238;stroke-linecap:round;stroke-linejoin:round"></path><path d="M158.92,168.16s-1,2.26,2.08,3.57a3.85,3.85,0,0,0,4.77-1.22" style="fill:none;stroke:#263238;stroke-linecap:round;stroke-linejoin:round"></path><path d="M167.47,163.43a.41.41,0,1,1-.41-.41A.41.41,0,0,1,167.47,163.43Z" style="fill:#F47814"></path><path d="M144.77,157.19s-2.64,7-1.58,18.35.71,29.14-3.08,32.7c0,0-1.93,3.88-1.67,5.9a6.11,6.11,0,0,1-1.58-5.63l-.79-2.61a12,12,0,0,0,1.84-6.23c0-3.56-11.21-35.52-4.48-49.67s12.92-6.24,12.92-6.24Z" style="fill:#263238"></path><path d="M170.7,138.72s-5.87,18.28-22.4,14.89l-3.53-3.76s4.66,5.59,12.46,2,9.3-15.62,9.3-15.62-5.54,21.75-23.74,14.63l-7.52-9.89s3-20,15-22.06,31.64,7,34.08,20.47c2.1,11.57-6.74,19.53-6.74,19.53s1.41-7.21.2-9.9S170.7,138.72,170.7,138.72Z" style="fill:#263238"></path><path d="M149.5,203.38s-4.69,7.27-1.2,8.43S149.5,203.38,149.5,203.38Z" style="fill:#F47814;stroke:#263238;stroke-linecap:round;stroke-linejoin:round"></path><path d="M146.72,164.62c-.46,2.65-2,4.6-3.35,4.35s-2.14-2.57-1.68-5.22,2-4.59,3.34-4.35S147.18,162,146.72,164.62Z" style="fill:none;stroke:#F47814;stroke-miterlimit:10"></path><path d="M148.3,153.61s-1.77-6-4.72-5.82-4.74,3-2.37,7.37,1.84,5.62,3,6.47,1.76-1.72,1.76-1.72" style="fill:#fff;stroke:#263238;stroke-linecap:round;stroke-linejoin:round"></path><path d="M145,159.4c1.39.24,2.15,2.58,1.69,5.22s-2,4.6-3.35,4.35" style="fill:none;stroke:#F47814;stroke-linecap:round;stroke-linejoin:round"></path><path d="M168.08,126c-6.89-.27-17.66,3.56-23.42,16.88S119.27,155.31,115.22,163c0,0,1.54-4.66,3-6a23.37,23.37,0,0,1,8.44-5.33c4.33-1.71,3.77-12.1,6-20.27s10.29-15,23-14.11,33.15,10.28,28.38,26C184,143.26,185.13,126.65,168.08,126Z" style="fill:#F47814"></path><g style="clip-path:url(#freepik--clip-path-9--inject-92)"><path d="M182.06,130.39c-3.51-3.26-7.82-6.08-12.32-6.34-10.92-.62-18.05,4.51-28.3,20.26-4.58,7.06-12.14,9.84-19.45,12.53-1.68.62-3.35,1.23-5,1.89a6.76,6.76,0,0,1,1.22-1.73c.65-.58,1.24-1.11,1.84-1.6l1.2-.44c7-2.57,14.25-5.24,18.48-11.74,10.71-16.48,18.3-21.82,30.08-21.17a15,15,0,0,1,2.75.42h0l.32.09.33.18A26.3,26.3,0,0,1,182.06,130.39Z" style="fill:#fff"></path><path d="M173.27,122.74l-.65-.27h0a16.33,16.33,0,0,0-11.19-.74c-9.32,3-15.38,11-20.24,17.36a50.19,50.19,0,0,1-6.57,7.63,30.49,30.49,0,0,1-6.55,4,6,6,0,0,0,1-1.61A26.34,26.34,0,0,0,134,146a49,49,0,0,0,6.42-7.48c4.95-6.49,11.11-14.58,20.73-17.7a15.59,15.59,0,0,1,6.71-.62,41.3,41.3,0,0,1,5.13,2.4Z" style="fill:#fff"></path></g><path d="M168.08,126c-6.89-.27-17.66,3.56-23.42,16.88S119.27,155.31,115.22,163c0,0,1.54-4.66,3-6a23.37,23.37,0,0,1,8.44-5.33c4.33-1.71,3.77-12.1,6-20.27s10.29-15,23-14.11,33.15,10.28,28.38,26C184,143.26,185.13,126.65,168.08,126Z" style="fill:none;stroke:#263238;stroke-linecap:round;stroke-linejoin:round"></path></g><g id="freepik--Torchs--inject-92"><ellipse cx="164.05" cy="437.63" rx="22.85" ry="4.75" style="fill-opacity:0.7000000000000001;opacity:0.2"></ellipse><ellipse cx="213.41" cy="456.51" rx="22.85" ry="4.75" style="fill-opacity:0.7000000000000001;opacity:0.2"></ellipse><ellipse cx="293.27" cy="455.5" rx="22.85" ry="4.75" style="fill-opacity:0.7000000000000001;opacity:0.2"></ellipse><ellipse cx="324.94" cy="437.07" rx="22.85" ry="4.75" style="fill-opacity:0.7000000000000001;opacity:0.2"></ellipse><path d="M270.19,435.9c0,2.62-10.23,4.74-22.85,4.74s-22.85-2.12-22.85-4.74,10.23-4.75,22.85-4.75S270.19,433.27,270.19,435.9Z" style="fill-opacity:0.7000000000000001;opacity:0.2"></path><ellipse cx="205.15" cy="420.24" rx="22.85" ry="4.75" style="fill-opacity:0.7000000000000001;opacity:0.2"></ellipse><path d="M220.44,413.44s-2.55,9.95-14.38,9.95a18.82,18.82,0,0,1-16.58-9.95S206.86,410.13,220.44,413.44Z" style="fill:#757575;stroke:#263238;stroke-linecap:round;stroke-linejoin:round"></path><path d="M200.1,399.77s8,15.07,1.39,14.88S200.1,399.77,200.1,399.77Z" style="fill:#F47814;stroke:#263238;stroke-linecap:round;stroke-linejoin:round"></path><path d="M201.12,407.21s2.53,5.36,0,5.35S201.12,407.21,201.12,407.21Z" style="fill:#fff"></path><path d="M189.48,413.44c1.43.77,17.37,4.12,31,0" style="fill:none;stroke:#263238;stroke-linecap:round;stroke-linejoin:round"></path><path d="M302,443.45s-3.09,12.05-17.43,12.05-20.08-12.05-20.08-12.05S285.56,439.44,302,443.45Z" style="fill:#757575;stroke:#263238;stroke-linecap:round;stroke-linejoin:round"></path><path d="M277.38,426.88s9.67,18.27,1.68,18S277.38,426.88,277.38,426.88Z" style="fill:#F47814;stroke:#263238;stroke-linecap:round;stroke-linejoin:round"></path><path d="M278.62,435.9s3.05,6.5,0,6.48S278.62,435.9,278.62,435.9Z" style="fill:#fff"></path><path d="M264.51,443.45c1.73.93,21,5,37.51,0" style="fill:none;stroke:#263238;stroke-linecap:round;stroke-linejoin:round"></path><path d="M262.56,428.2s-2.8,10.92-15.78,10.92a20.64,20.64,0,0,1-18.19-10.92S247.66,424.57,262.56,428.2Z" style="fill:#757575;stroke:#263238;stroke-linecap:round;stroke-linejoin:round"></path><path d="M240.24,413.19s8.76,16.55,1.52,16.34S240.24,413.19,240.24,413.19Z" style="fill:#F47814;stroke:#263238;stroke-linecap:round;stroke-linejoin:round"></path><path d="M241.36,421.36s2.77,5.89,0,5.87S241.36,421.36,241.36,421.36Z" style="fill:#fff"></path><path d="M228.59,428.2c1.57.84,19.06,4.52,34,0" style="fill:none;stroke:#263238;stroke-linecap:round;stroke-linejoin:round"></path><path d="M232.17,443.45s-3.1,12.05-17.44,12.05-20.08-12.05-20.08-12.05S215.71,439.44,232.17,443.45Z" style="fill:#757575;stroke:#263238;stroke-linecap:round;stroke-linejoin:round"></path><path d="M207.52,426.88s9.67,18.27,1.68,18S207.52,426.88,207.52,426.88Z" style="fill:#F47814;stroke:#263238;stroke-linecap:round;stroke-linejoin:round"></path><path d="M208.76,435.9s3.06,6.5,0,6.48S208.76,435.9,208.76,435.9Z" style="fill:#fff"></path><path d="M194.65,443.45c1.73.93,21,5,37.52,0" style="fill:none;stroke:#263238;stroke-linecap:round;stroke-linejoin:round"></path><path d="M328.43,428.2s-2.81,10.92-15.79,10.92a20.64,20.64,0,0,1-18.19-10.92S313.52,424.57,328.43,428.2Z" style="fill:#757575;stroke:#263238;stroke-linecap:round;stroke-linejoin:round"></path><path d="M306.1,413.19s8.76,16.55,1.52,16.34S306.1,413.19,306.1,413.19Z" style="fill:#F47814;stroke:#263238;stroke-linecap:round;stroke-linejoin:round"></path><path d="M307.22,421.36s2.77,5.89,0,5.87S307.22,421.36,307.22,421.36Z" style="fill:#fff"></path><path d="M294.45,428.2c1.57.84,19.06,4.52,34,0" style="fill:none;stroke:#263238;stroke-linecap:round;stroke-linejoin:round"></path><path d="M190.14,428.2s-2.81,10.92-15.79,10.92a20.64,20.64,0,0,1-18.19-10.92S175.23,424.57,190.14,428.2Z" style="fill:#757575;stroke:#263238;stroke-linecap:round;stroke-linejoin:round"></path><path d="M167.82,413.19s8.75,16.55,1.51,16.34S167.82,413.19,167.82,413.19Z" style="fill:#F47814;stroke:#263238;stroke-linecap:round;stroke-linejoin:round"></path><path d="M168.94,421.36s2.76,5.89,0,5.87S168.94,421.36,168.94,421.36Z" style="fill:#fff"></path><path d="M156.16,428.2c1.57.84,19.06,4.52,34,0" style="fill:none;stroke:#263238;stroke-linecap:round;stroke-linejoin:round"></path></g></svg>